{
    "asset" : {
        "generator" : "Khronos glTF Blender I/O v0.9.36",
        "version" : "2.0"
    },
    "scene" : 0,
    "scenes" : [
        {
            "name" : "Scene",
            "nodes" : [
                0
            ]
        }
    ],
    "nodes" : [
        {
            "mesh" : 0,
            "name" : "BallMini",
            "rotation" : [
                0.7071068286895752,
                0,
                0,
                0.7071067094802856
            ],
            "scale" : [
                0.010000000707805157,
                0.010000000707805157,
                0.010000000707805157
            ]
        }
    ],
    "animations" : [
        {
            "channels" : [
                {
                    "sampler" : 0,
                    "target" : {
                        "node" : 0,
                        "path" : "translation"
                    }
                },
                {
                    "sampler" : 1,
                    "target" : {
                        "node" : 0,
                        "path" : "rotation"
                    }
                },
                {
                    "sampler" : 2,
                    "target" : {
                        "node" : 0,
                        "path" : "scale"
                    }
                }
            ],
            "name" : "BallMini|Take 001|BaseLayer.001",
            "samplers" : [
                {
                    "input" : 8,
                    "interpolation" : "LINEAR",
                    "output" : 9
                },
                {
                    "input" : 8,
                    "interpolation" : "LINEAR",
                    "output" : 10
                },
                {
                    "input" : 8,
                    "interpolation" : "LINEAR",
                    "output" : 11
                }
            ]
        }
    ],
    "materials" : [
        {
            "doubleSided" : true,
            "emissiveFactor" : [
                1,
                1,
                1
            ],
            "emissiveTexture" : {
                "index" : 0,
                "texCoord" : 0
            },
            "name" : "lambert3",
            "pbrMetallicRoughness" : {
                "baseColorTexture" : {
                    "index" : 1,
                    "texCoord" : 0
                },
                "metallicRoughnessTexture" : {
                    "index" : 2,
                    "texCoord" : 0
                }
            }
        },
        {
            "doubleSided" : true,
            "emissiveFactor" : [
                1,
                1,
                1
            ],
            "emissiveTexture" : {
                "index" : 3,
                "texCoord" : 0
            },
            "name" : "lambert2",
            "pbrMetallicRoughness" : {
                "baseColorTexture" : {
                    "index" : 4,
                    "texCoord" : 0
                },
                "metallicRoughnessTexture" : {
                    "index" : 5,
                    "texCoord" : 0
                }
            }
        }
    ],
    "meshes" : [
        {
            "name" : "Mesh.001",
            "primitives" : [
                {
                    "attributes" : {
                        "POSITION" : 0,
                        "NORMAL" : 1,
                        "TEXCOORD_0" : 2
                    },
                    "indices" : 3,
                    "material" : 0
                },
                {
                    "attributes" : {
                        "POSITION" : 4,
                        "NORMAL" : 5,
                        "TEXCOORD_0" : 6
                    },
                    "indices" : 7,
                    "material" : 1
                }
            ]
        }
    ],
    "textures" : [
        {
            "source" : 0
        },
        {
            "source" : 1
        },
        {
            "source" : 2
        },
        {
            "source" : 3
        },
        {
            "source" : 1
        },
        {
            "source" : 2
        }
    ],
    "images" : [
        {
            "bufferView" : 4,
            "mimeType" : "image/jpeg",
            "name" : "BallMini_lambert3_Emissive"
        },
        {
            "bufferView" : 5,
            "mimeType" : "image/jpeg",
            "name" : "BallMini_lambert3_Diffuse"
        },
        {
            "bufferView" : 6,
            "mimeType" : "image/jpeg",
            "name" : "BallMini_lambert3_OcclusionRoughnessMetallic"
        },
        {
            "bufferView" : 11,
            "mimeType" : "image/jpeg",
            "name" : "BallMini_lambert2_Emissive"
        }
    ],
    "accessors" : [
        {
            "bufferView" : 0,
            "componentType" : 5126,
            "count" : 1202,
            "max" : [
                10.432498931884766,
                10.41191577911377,
                0
            ],
            "min" : [
                -10.43250560760498,
                -10.411921501159668,
                -30.479999542236328
            ],
            "type" : "VEC3"
        },
        {
            "bufferView" : 1,
            "componentType" : 5126,
            "count" : 1202,
            "type" : "VEC3"
        },
        {
            "bufferView" : 2,
            "componentType" : 5126,
            "count" : 1202,
            "type" : "VEC2"
        },
        {
            "bufferView" : 3,
            "componentType" : 5123,
            "count" : 6900,
            "type" : "SCALAR"
        },
        {
            "bufferView" : 7,
            "componentType" : 5126,
            "count" : 1377,
            "max" : [
                15.239999771118164,
                15.209931373596191,
                -4.130518913269043
            ],
            "min" : [
                -15.240009307861328,
                -15.209939956665039,
                -26.34947967529297
            ],
            "type" : "VEC3"
        },
        {
            "bufferView" : 8,
            "componentType" : 5126,
            "count" : 1377,
            "type" : "VEC3"
        },
        {
            "bufferView" : 9,
            "componentType" : 5126,
            "count" : 1377,
            "type" : "VEC2"
        },
        {
            "bufferView" : 10,
            "componentType" : 5123,
            "count" : 7800,
            "type" : "SCALAR"
        },
        {
            "bufferView" : 12,
            "componentType" : 5126,
            "count" : 3,
            "max" : [
                1.0333333333333334
            ],
            "min" : [
                0.06666666666666667
            ],
            "type" : "SCALAR"
        },
        {
            "bufferView" : 13,
            "componentType" : 5126,
            "count" : 3,
            "type" : "VEC3"
        },
        {
            "bufferView" : 14,
            "componentType" : 5126,
            "count" : 3,
            "type" : "VEC4"
        },
        {
            "bufferView" : 15,
            "componentType" : 5126,
            "count" : 3,
            "type" : "VEC3"
        }
    ],
    "bufferViews" : [
        {
            "buffer" : 0,
            "byteLength" : 14424,
            "byteOffset" : 0
        },
        {
            "buffer" : 0,
            "byteLength" : 14424,
            "byteOffset" : 14424
        },
        {
            "buffer" : 0,
            "byteLength" : 9616,
            "byteOffset" : 28848
        },
        {
            "buffer" : 0,
            "byteLength" : 13800,
            "byteOffset" : 38464
        },
        {
            "buffer" : 0,
            "byteLength" : 95866,
            "byteOffset" : 52264
        },
        {
            "buffer" : 0,
            "byteLength" : 17014,
            "byteOffset" : 148132
        },
        {
            "buffer" : 0,
            "byteLength" : 17028,
            "byteOffset" : 165148
        },
        {
            "buffer" : 0,
            "byteLength" : 16524,
            "byteOffset" : 182176
        },
        {
            "buffer" : 0,
            "byteLength" : 16524,
            "byteOffset" : 198700
        },
        {
            "buffer" : 0,
            "byteLength" : 11016,
            "byteOffset" : 215224
        },
        {
            "buffer" : 0,
            "byteLength" : 15600,
            "byteOffset" : 226240
        },
        {
            "buffer" : 0,
            "byteLength" : 268371,
            "byteOffset" : 241840
        },
        {
            "buffer" : 0,
            "byteLength" : 12,
            "byteOffset" : 510212
        },
        {
            "buffer" : 0,
            "byteLength" : 36,
            "byteOffset" : 510224
        },
        {
            "buffer" : 0,
            "byteLength" : 48,
            "byteOffset" : 510260
        },
        {
            "buffer" : 0,
            "byteLength" : 36,
            "byteOffset" : 510308
        }
    ],
    "buffers" : [
        {
            "byteLength" : 510344,
            "uri" : "data:application/octet-stream;base64,"
        }
    ]
}
